<?xml version="1.0" standalone="no"?>
<!DOCTYPE svg PUBLIC "-//W3C//DTD SVG 20010904//EN"
 "http://www.w3.org/TR/2001/REC-SVG-20010904/DTD/svg10.dtd">
<svg version="1.0" xmlns="http://www.w3.org/2000/svg"
 width="1280.000000pt" height="1085.000000pt" viewBox="0 0 1280.000000 1085.000000"
 preserveAspectRatio="xMidYMid meet">
<metadata>
Created by potrace 1.15, written by Peter Selinger 2001-2017
</metadata>
<g transform="translate(0.000000,1085.000000) scale(0.100000,-0.100000)"
fill="#000000" stroke="none">
<path d="M1490 10844 c-14 -3 -57 -21 -96 -39 -204 -98 -382 -399 -523 -885
-128 -442 -194 -1022 -162 -1423 11 -136 11 -151 -5 -175 -9 -15 -90 -126
-180 -248 -210 -284 -311 -440 -384 -589 -105 -216 -147 -384 -137 -550 5 -74
31 -222 41 -233 7 -6 145 -41 189 -47 39 -6 47 -11 42 -24 -45 -113 -110 -411
-135 -611 -17 -137 -26 -490 -18 -669 20 -442 123 -972 259 -1344 424 -1152
1285 -2217 2380 -2945 454 -302 947 -544 1464 -718 567 -192 1027 -280 1751
-335 345 -26 984 1 1358 57 1108 165 2177 627 3071 1328 292 229 715 634 929
891 453 543 769 1097 969 1695 70 208 121 433 186 820 145 855 231 1513 287
2190 20 230 24 814 8 865 l-10 30 -137 13 c-76 8 -143 12 -150 9 -7 -2 -26
-46 -42 -96 -16 -50 -32 -91 -37 -91 -4 0 -8 18 -8 39 0 22 -7 93 -15 158
-121 944 -420 1652 -830 1964 -45 35 -227 147 -316 195 -3 2 -17 -60 -29 -137
l-23 -140 -50 58 c-395 456 -957 736 -1740 868 -251 42 -508 65 -879 80 l-138
5 -6 -28 c-23 -101 -23 -102 -57 -103 l-32 -1 28 -10 c30 -11 32 -23 13 -103
l-11 -50 135 -66 c74 -37 171 -91 215 -119 82 -54 238 -171 233 -175 -8 -7
-1079 -214 -1115 -215 -20 -1 634 -284 951 -411 667 -269 975 -424 1308 -659
113 -80 309 -267 384 -366 71 -95 136 -218 167 -319 14 -44 29 -88 33 -98 4
-12 -18 -2 -67 31 -65 44 -409 208 -409 195 0 -3 18 -103 39 -222 94 -512 128
-770 156 -1191 17 -251 20 -779 5 -764 -6 6 -125 194 -265 419 l-255 408 0
-54 c0 -30 7 -198 15 -374 39 -849 -1 -1458 -131 -1968 -31 -126 -72 -245 -60
-177 3 14 8 129 12 255 l7 230 -148 -140 c-186 -176 -196 -188 -334 -384 -241
-345 -386 -525 -571 -711 -397 -397 -813 -601 -1280 -626 -124 -7 -361 11
-620 47 -562 78 -1022 235 -1414 483 l-70 44 75 6 c41 3 148 8 239 12 438 16
711 101 1009 313 144 101 281 183 431 255 236 113 388 156 549 156 l89 0 40
48 c97 117 135 213 134 342 -2 194 -115 397 -305 549 -69 54 -103 66 -292 100
-436 78 -815 33 -1186 -140 -149 -69 -213 -85 -384 -99 -379 -31 -836 74
-1043 239 -69 56 -168 198 -246 356 -78 157 -109 253 -110 345 l-1 75 160 0
c252 -1 406 -33 914 -191 167 -52 308 -94 313 -94 9 0 -100 215 -240 475 -35
66 -128 225 -205 354 l-141 234 86 82 c168 160 309 255 696 467 309 169 431
244 441 269 4 11 29 37 56 57 111 84 142 182 90 287 -53 109 -175 175 -341
183 -113 5 -183 -7 -256 -43 l-49 -24 -52 20 c-320 126 -690 411 -898 691
l-58 78 35 83 c54 126 155 315 227 424 137 207 235 306 540 547 48 38 85 71
82 74 -9 9 -432 51 -515 51 -384 0 -912 -223 -1407 -596 l-72 -54 -98 30
c-179 55 -258 66 -483 65 -290 0 -507 -36 -692 -113 l-69 -29 -30 31 c-147
154 -306 523 -494 1146 -31 102 -57 186 -58 188 -6 6 -203 11 -227 7z"/>
</g>
</svg>
